<?xml version="1.0" encoding="utf-8"?>
<!-- Generator: Adobe Illustrator 16.2.1, SVG Export Plug-In . SVG Version: 6.00 Build 0)  -->
<!DOCTYPE svg PUBLIC "-//W3C//DTD SVG 1.1//EN" "http://www.w3.org/Graphics/SVG/1.1/DTD/svg11.dtd">
<svg version="1.1" id="Layer_1" xmlns="http://www.w3.org/2000/svg" xmlns:xlink="http://www.w3.org/1999/xlink" x="0px" y="0px"
	 width="152.667px" height="143.333px" viewBox="0 0 152.667 143.333" enable-background="new 0 0 152.667 143.333"
	 xml:space="preserve">
<g>
	<path fill="#F26739" d="M143.772,19.508h-24.234v-0.74c0-0.877-0.71-1.587-1.587-1.587h-23.38c-0.876,0-1.587,0.71-1.587,1.587
		v0.74H67.688c-1.754,0-3.175,1.422-3.175,3.175v100.294c0,1.753,1.421,3.175,3.175,3.175h76.085c1.752,0,3.175-1.421,3.175-3.175
		V22.683C146.947,20.93,145.525,19.508,143.772,19.508z M140.598,119.802H70.862V25.858h22.122v1.138
		c0,0.877,0.711,1.587,1.587,1.587h23.38c0.877,0,1.587-0.71,1.587-1.587v-1.138h21.059V119.802z"/>
	<path fill="#F26739" d="M94.042,35.022H77.425c-1.169,0-2.117,0.948-2.117,2.116v16.617c0,1.169,0.948,2.117,2.117,2.117h16.617
		c1.169,0,2.117-0.948,2.117-2.117V37.138C96.159,35.97,95.211,35.022,94.042,35.022z M91.925,51.639H79.542V39.255h12.384V51.639z"
		/>
	<path fill="#F26739" d="M94.042,62.405H77.425c-1.169,0-2.117,0.948-2.117,2.116v16.617c0,1.169,0.948,2.117,2.117,2.117h16.617
		c1.169,0,2.117-0.948,2.117-2.117V64.521C96.159,63.353,95.211,62.405,94.042,62.405z M91.925,79.022H79.542V66.638h12.384V79.022z
		"/>
	<path fill="#F26739" d="M94.042,88.576H77.425c-1.169,0-2.117,0.948-2.117,2.116v16.617c0,1.169,0.948,2.117,2.117,2.117h16.617
		c1.169,0,2.117-0.948,2.117-2.117V90.692C96.159,89.523,95.211,88.576,94.042,88.576z M91.925,105.193H79.542V92.809h12.384
		V105.193z"/>
	<rect x="99.505" y="39.585" fill="#F26739" width="31.126" height="4.233"/>
	<rect x="99.505" y="47.542" fill="#F26739" width="24.9" height="4.233"/>
	<rect x="99.505" y="92.905" fill="#F26739" width="31.126" height="4.233"/>
	<rect x="99.505" y="100.862" fill="#F26739" width="24.9" height="4.233"/>
	<rect x="99.505" y="64.487" fill="#F26739" width="31.126" height="4.233"/>
	<rect x="99.505" y="79.022" fill="#F26739" width="31.126" height="4.233"/>
	<rect x="99.505" y="72.444" fill="#F26739" width="24.9" height="4.233"/>
	<path fill="#F26739" d="M5.72,26.833v68.188c0,1.753,1.422,3.175,3.175,3.175h50.041v-6.35H12.069V30.008h46.866v-6.35H8.895
		C7.142,23.659,5.72,25.081,5.72,26.833z"/>
	<path fill="#F26739" d="M50.396,73.037c-8.3,0.001-15.217-11.76-15.908-17.294s-10.376-11.066-16.601-11.82v42.254l41.048-0.094
		V72.411C58.935,72.411,58.695,73.035,50.396,73.037z"/>
	<rect x="47.629" y="99.887" fill="#F26739" width="11.306" height="12.59"/>
	<rect x="29.646" y="114.339" fill="#F26739" width="29.536" height="6.35"/>
</g>
<g>
	<path fill="#F26739" d="M443.179,7.667v-4h-30v4h-71.94v132h113.001v-132H443.179z M419.179,9.667h18v25.939l-9-8.678l-9,8.678
		V9.667z M354.238,133.667h-7v-120h7V133.667z M448.239,133.667h-88.001v-120h52.94v36.061l15-14.464l15,14.464V13.667h5.061
		V133.667z"/>
	<rect x="367.738" y="61.667" fill="#F26739" width="72.439" height="6"/>
	<rect x="367.738" y="75.667" fill="#F26739" width="69" height="6"/>
	<rect x="425.619" y="117.667" fill="#F26739" width="17.439" height="6"/>
	<rect x="367.738" y="19.167" fill="#F26739" width="36.22" height="6"/>
</g>
</svg>
