<?xml version="1.0" encoding="utf-8"?>
<!-- Generator: Adobe Illustrator 16.2.1, SVG Export Plug-In . SVG Version: 6.00 Build 0)  -->
<!DOCTYPE svg PUBLIC "-//W3C//DTD SVG 1.1//EN" "http://www.w3.org/Graphics/SVG/1.1/DTD/svg11.dtd">
<svg version="1.1" id="Layer_1" xmlns="http://www.w3.org/2000/svg" xmlns:xlink="http://www.w3.org/1999/xlink" x="0px" y="0px"
	 width="60px" height="60px" viewBox="3 4 60 60" enable-background="new 3 4 60 60" xml:space="preserve">
<g>
	<path fill="#E54B48" d="M3,4v60h60V4H3z M54.439,49.605c0,0.828-0.672,1.5-1.5,1.5H13.639c-0.829,0-1.5-0.672-1.5-1.5V19.607
		c0-0.031,0.007-0.06,0.009-0.09c0.003-0.053,0.007-0.106,0.016-0.159c0.008-0.048,0.02-0.095,0.033-0.141s0.025-0.092,0.042-0.137
		c0.018-0.047,0.039-0.091,0.061-0.136c0.021-0.042,0.042-0.083,0.067-0.124c0.026-0.041,0.054-0.08,0.083-0.119
		s0.059-0.076,0.092-0.111c0.034-0.037,0.07-0.07,0.107-0.103c0.035-0.031,0.069-0.061,0.107-0.088
		c0.045-0.033,0.093-0.062,0.143-0.09c0.024-0.014,0.045-0.032,0.071-0.045c0.008-0.004,0.016-0.003,0.024-0.007
		c0.147-0.07,0.307-0.115,0.475-0.134c0.029-0.003,0.057-0.007,0.086-0.009c0.028-0.001,0.055-0.008,0.084-0.008h39.301
		c0.828,0,1.5,0.671,1.5,1.5V49.605z"/>
	<path fill="#E54B48" d="M33.29,38.266c-0.342,0-0.685-0.116-0.963-0.351c-8.301-6.954-14.036-11.881-17.188-14.762v24.952h36.301
		V23.289l-17.177,14.62C33.982,38.146,33.636,38.266,33.29,38.266z"/>
	<path fill="#E54B48" d="M49.374,21.107H17.321c3.695,3.314,10.767,9.333,15.962,13.695L49.374,21.107z"/>
</g>
<g>
	<text transform="matrix(1 0 0 1 309 400)"><tspan x="0" y="0" font-family="'MyriadPro-Regular'" font-size="12">&lt;a href=&quot;btn btn-md btn-default&quot;&gt;&lt;img src=&quot;img/facebook.svg&quot; /&gt;&lt;/a&gt;</tspan><tspan x="0" y="14.4" font-family="'MyriadPro-Regular'" font-size="12" letter-spacing="33">			</tspan><tspan x="108" y="14.4" font-family="'MyriadPro-Regular'" font-size="12">&lt;a href=&quot;btn btn-md btn-default&quot;&gt;&lt;img src=&quot;img/twitter.svg&quot; /&gt;&lt;/a&gt;</tspan></text>
</g>
</svg>
