<?xml version="1.0" encoding="utf-8"?>
<!-- Generator: Adobe Illustrator 16.2.1, SVG Export Plug-In . SVG Version: 6.00 Build 0)  -->
<!DOCTYPE svg PUBLIC "-//W3C//DTD SVG 1.1//EN" "http://www.w3.org/Graphics/SVG/1.1/DTD/svg11.dtd">
<svg version="1.1" id="Layer_1" xmlns="http://www.w3.org/2000/svg" xmlns:xlink="http://www.w3.org/1999/xlink" x="0px" y="0px"
	 width="152.667px" height="143.333px" viewBox="0 0 152.667 143.333" enable-background="new 0 0 152.667 143.333"
	 xml:space="preserve">
<g>
	<path d="M368.362-186.799h-22.899v-0.699c0-0.829-0.671-1.5-1.5-1.5H321.87c-0.828,0-1.5,0.671-1.5,1.5v0.699h-23.903
		c-1.657,0-3,1.343-3,3v94.771c0,1.657,1.343,3,3,3h71.896c1.656,0,3-1.343,3-3v-94.771
		C371.362-185.456,370.019-186.799,368.362-186.799z M365.362-92.028h-65.896v-88.771h20.903v1.075c0,0.829,0.672,1.5,1.5,1.5
		h22.093c0.829,0,1.5-0.671,1.5-1.5v-1.075h19.899V-92.028z"/>
	<path d="M321.37-172.14h-15.702c-1.104,0-2,0.896-2,2v15.702c0,1.104,0.896,2,2,2h15.702c1.104,0,2-0.896,2-2v-15.702
		C323.37-171.245,322.475-172.14,321.37-172.14z M319.37-156.438h-11.702v-11.702h11.702V-156.438z"/>
	<path d="M321.37-146.265h-15.702c-1.104,0-2,0.896-2,2v15.702c0,1.104,0.896,2,2,2h15.702c1.104,0,2-0.896,2-2v-15.702
		C323.37-145.369,322.475-146.265,321.37-146.265z M319.37-130.562h-11.702v-11.702h11.702V-130.562z"/>
	<path d="M321.37-121.535h-15.702c-1.104,0-2,0.896-2,2v15.702c0,1.104,0.896,2,2,2h15.702c1.104,0,2-0.896,2-2v-15.702
		C323.37-120.64,322.475-121.535,321.37-121.535z M319.37-105.833h-11.702v-11.702h11.702V-105.833z"/>
	<rect x="326.532" y="-167.828" width="29.412" height="4"/>
	<rect x="326.532" y="-160.309" width="23.529" height="4"/>
	<rect x="326.532" y="-117.444" width="29.412" height="4"/>
	<rect x="326.532" y="-109.925" width="23.529" height="4"/>
	<rect x="326.532" y="-144.297" width="29.412" height="4"/>
	<rect x="326.532" y="-130.562" width="29.412" height="4"/>
	<rect x="326.532" y="-136.778" width="23.529" height="4"/>
	<path d="M237.911-179.877v64.434c0,1.657,1.344,3,3,3h47.285v-6h-44.285v-58.434h44.285v-6h-47.285
		C239.255-182.877,237.911-181.534,237.911-179.877z"/>
	<path d="M280.127-136.219c-7.843,0.001-14.379-11.112-15.032-16.341s-9.805-10.457-15.687-11.169v39.928l38.788-0.089v-12.919
		C288.196-136.81,287.97-136.22,280.127-136.219z"/>
	<rect x="277.513" y="-110.846" width="10.684" height="11.897"/>
	<rect x="260.52" y="-97.19" width="27.909" height="6"/>
</g>
<g>
	<path fill="#F26739" d="M121.773,7.667v-4h-30v4h-71.94v132h113.001v-132H121.773z M97.773,9.667h18v25.939l-9-8.678l-9,8.678
		V9.667z M32.833,133.667h-7v-120h7V133.667z M126.834,133.667H38.833v-120h52.94v36.061l15-14.464l15,14.464V13.667h5.061V133.667z
		"/>
	<rect x="46.333" y="61.667" fill="#F26739" width="72.439" height="6"/>
	<rect x="46.333" y="75.667" fill="#F26739" width="69" height="6"/>
	<rect x="104.214" y="117.667" fill="#F26739" width="17.439" height="6"/>
	<rect x="46.333" y="19.167" fill="#F26739" width="36.22" height="6"/>
</g>
</svg>
