<?xml version="1.0" encoding="utf-8"?>
<!-- Generator: Adobe Illustrator 16.2.1, SVG Export Plug-In . SVG Version: 6.00 Build 0)  -->
<!DOCTYPE svg PUBLIC "-//W3C//DTD SVG 1.1//EN" "http://www.w3.org/Graphics/SVG/1.1/DTD/svg11.dtd">
<svg version="1.1" id="Layer_1" xmlns="http://www.w3.org/2000/svg" xmlns:xlink="http://www.w3.org/1999/xlink" x="0px" y="0px"
	 width="60px" height="60px" viewBox="3 4 60 60" enable-background="new 3 4 60 60" xml:space="preserve">
<path fill="#598DCA" d="M37.167,22.283c-2.619,0.953-4.274,3.411-4.086,6.101l0.063,1.038l-1.048-0.127
	c-3.813-0.487-7.145-2.139-9.974-4.915l-1.383-1.377l-0.356,1.017c-0.754,2.268-0.272,4.661,1.299,6.271
	c0.838,0.89,0.649,1.017-0.796,0.487c-0.503-0.169-0.943-0.296-0.985-0.233c-0.146,0.149,0.356,2.076,0.754,2.839
	c0.545,1.06,1.655,2.099,2.871,2.712l1.027,0.487l-1.215,0.021c-1.173,0-1.215,0.021-1.089,0.467
	c0.419,1.377,2.074,2.839,3.918,3.475l1.299,0.444l-1.131,0.678c-1.676,0.976-3.646,1.524-5.616,1.567
	C19.775,43.256,19,43.341,19,43.404c0,0.212,2.557,1.397,4.044,1.863c4.463,1.377,9.765,0.784,13.746-1.566
	c2.829-1.674,5.657-5,6.978-8.221c0.713-1.715,1.426-4.852,1.426-6.354c0-0.975,0.062-1.102,1.236-2.267
	c0.691-0.679,1.34-1.419,1.467-1.631c0.209-0.403,0.188-0.403-0.881-0.044c-1.781,0.637-2.033,0.552-1.152-0.401
	c0.65-0.678,1.426-1.907,1.426-2.268c0-0.062-0.314,0.042-0.671,0.233c-0.377,0.212-1.216,0.53-1.845,0.72l-1.131,0.361l-1.026-0.7
	c-0.566-0.381-1.361-0.805-1.781-0.932C39.766,21.902,38.131,21.944,37.167,22.283z M3,4h60v60H3V4z"/>
</svg>
